<svg xmlns="http://www.w3.org/2000/svg" width="806" height="627" viewBox="0 0 806 627">
<rect width="806" height="627" fill="#1a1b26" rx="12"/>
<text font-family="Consolas, Menlo, Monaco, monospace" font-size="13px"><tspan x="24.0" y="37.0" fill="#bb9af7">#</tspan><tspan x="31.8" y="37.0" fill="#bb9af7">#</tspan><tspan x="39.6" y="37.0" fill="#bb9af7">#</tspan><tspan x="47.4" y="37.0" fill="#bb9af7">#</tspan><tspan x="55.2" y="37.0" fill="#bb9af7">#</tspan><tspan x="63.0" y="37.0" fill="#bb9af7">#</tspan><tspan x="70.8" y="37.0" fill="#bb9af7">#</tspan><tspan x="78.6" y="37.0" fill="#bb9af7">#</tspan><tspan x="86.4" y="37.0" fill="#bb9af7">#</tspan><tspan x="94.2" y="37.0" fill="#bb9af7">#</tspan><tspan x="102.0" y="37.0" fill="#bb9af7">#</tspan><tspan x="109.8" y="37.0" fill="#bb9af7">#</tspan><tspan x="117.6" y="37.0" fill="#bb9af7">#</tspan><tspan x="125.4" y="37.0" fill="#bb9af7">#</tspan><tspan x="133.2" y="37.0" fill="#bb9af7">#</tspan><tspan x="141.0" y="37.0" fill="#3b4261">#</tspan><tspan x="148.8" y="37.0" fill="#565f89">#</tspan><tspan x="156.6" y="37.0" fill="#bb9af7">#</tspan><tspan x="164.4" y="37.0" fill="#bb9af7">#</tspan><tspan x="172.2" y="37.0" fill="#bb9af7">#</tspan><tspan x="180.0" y="37.0" fill="#3b4261">#</tspan><tspan x="187.8" y="37.0" fill="#bb9af7">#</tspan><tspan x="195.6" y="37.0" fill="#bb9af7">#</tspan><tspan x="203.4" y="37.0" fill="#bb9af7">#</tspan><tspan x="211.2" y="37.0" fill="#bb9af7">#</tspan><tspan x="219.0" y="37.0" fill="#bb9af7">#</tspan><tspan x="226.8" y="37.0" fill="#bb9af7">#</tspan><tspan x="234.6" y="37.0" fill="#bb9af7">#</tspan><tspan x="242.4" y="37.0" fill="#bb9af7">#</tspan><tspan x="250.2" y="37.0" fill="#bb9af7">#</tspan><tspan x="258.0" y="37.0" fill="#bb9af7">#</tspan><tspan x="265.8" y="37.0" fill="#bb9af7">#</tspan><tspan x="273.6" y="37.0" fill="#bb9af7">#</tspan><tspan x="281.4" y="37.0" fill="#bb9af7">#</tspan><tspan x="289.2" y="37.0" fill="#bb9af7">#</tspan><tspan x="297.0" y="37.0" fill="#bb9af7">#</tspan><tspan x="304.8" y="37.0" fill="#bb9af7">#</tspan><tspan x="312.6" y="37.0" fill="#bb9af7">#</tspan><tspan x="320.4" y="37.0" fill="#bb9af7">#</tspan><tspan x="328.2" y="37.0" fill="#bb9af7">#</tspan><tspan x="24.0" y="54.5" fill="#bb9af7">#</tspan><tspan x="31.8" y="54.5" fill="#bb9af7">#</tspan><tspan x="39.6" y="54.5" fill="#bb9af7">#</tspan><tspan x="47.4" y="54.5" fill="#bb9af7">#</tspan><tspan x="55.2" y="54.5" fill="#bb9af7">#</tspan><tspan x="63.0" y="54.5" fill="#bb9af7">#</tspan><tspan x="70.8" y="54.5" fill="#bb9af7">#</tspan><tspan x="78.6" y="54.5" fill="#bb9af7">#</tspan><tspan x="86.4" y="54.5" fill="#bb9af7">#</tspan><tspan x="94.2" y="54.5" fill="#bb9af7">#</tspan><tspan x="102.0" y="54.5" fill="#bb9af7">#</tspan><tspan x="109.8" y="54.5" fill="#bb9af7">#</tspan><tspan x="117.6" y="54.5" fill="#bb9af7">#</tspan><tspan x="125.4" y="54.5" fill="#3b4261">#</tspan><tspan x="133.2" y="54.5" fill="#bb9af7">#</tspan><tspan x="141.0" y="54.5" fill="#bb9af7">#</tspan><tspan x="148.8" y="54.5" fill="#bb9af7">#</tspan><tspan x="156.6" y="54.5" fill="#bb9af7">#</tspan><tspan x="164.4" y="54.5" fill="#bb9af7">#</tspan><tspan x="172.2" y="54.5" fill="#bb9af7">#</tspan><tspan x="180.0" y="54.5" fill="#7aa2f7">#</tspan><tspan x="187.8" y="54.5" fill="#bb9af7">#</tspan><tspan x="211.2" y="54.5" fill="#3b4261">#</tspan><tspan x="234.6" y="54.5" fill="#3b4261">#</tspan><tspan x="258.0" y="54.5" fill="#7aa2f7">#</tspan><tspan x="265.8" y="54.5" fill="#bb9af7">#</tspan><tspan x="273.6" y="54.5" fill="#bb9af7">#</tspan><tspan x="281.4" y="54.5" fill="#bb9af7">#</tspan><tspan x="289.2" y="54.5" fill="#bb9af7">#</tspan><tspan x="297.0" y="54.5" fill="#bb9af7">#</tspan><tspan x="304.8" y="54.5" fill="#bb9af7">#</tspan><tspan x="312.6" y="54.5" fill="#bb9af7">#</tspan><tspan x="320.4" y="54.5" fill="#bb9af7">#</tspan><tspan x="328.2" y="54.5" fill="#bb9af7">#</tspan><tspan x="24.0" y="72.1" fill="#bb9af7">#</tspan><tspan x="31.8" y="72.1" fill="#bb9af7">#</tspan><tspan x="39.6" y="72.1" fill="#bb9af7">#</tspan><tspan x="47.4" y="72.1" fill="#bb9af7">#</tspan><tspan x="55.2" y="72.1" fill="#bb9af7">#</tspan><tspan x="63.0" y="72.1" fill="#bb9af7">#</tspan><tspan x="70.8" y="72.1" fill="#bb9af7">#</tspan><tspan x="78.6" y="72.1" fill="#bb9af7">#</tspan><tspan x="86.4" y="72.1" fill="#565f89">#</tspan><tspan x="94.2" y="72.1" fill="#565f89">#</tspan><tspan x="156.6" y="72.1" fill="#565f89">#</tspan><tspan x="164.4" y="72.1" fill="#565f89">#</tspan><tspan x="172.2" y="72.1" fill="#3b4261">#</tspan><tspan x="273.6" y="72.1" fill="#565f89">#</tspan><tspan x="281.4" y="72.1" fill="#bb9af7">#</tspan><tspan x="289.2" y="72.1" fill="#bb9af7">#</tspan><tspan x="297.0" y="72.1" fill="#bb9af7">#</tspan><tspan x="304.8" y="72.1" fill="#bb9af7">#</tspan><tspan x="312.6" y="72.1" fill="#bb9af7">#</tspan><tspan x="320.4" y="72.1" fill="#bb9af7">#</tspan><tspan x="328.2" y="72.1" fill="#bb9af7">#</tspan><tspan x="24.0" y="89.7" fill="#bb9af7">#</tspan><tspan x="31.8" y="89.7" fill="#bb9af7">#</tspan><tspan x="39.6" y="89.7" fill="#bb9af7">#</tspan><tspan x="47.4" y="89.7" fill="#bb9af7">#</tspan><tspan x="55.2" y="89.7" fill="#bb9af7">#</tspan><tspan x="63.0" y="89.7" fill="#bb9af7">#</tspan><tspan x="70.8" y="89.7" fill="#bb9af7">#</tspan><tspan x="78.6" y="89.7" fill="#3b4261">#</tspan><tspan x="117.6" y="89.7" fill="#3b4261">#</tspan><tspan x="289.2" y="89.7" fill="#565f89">#</tspan><tspan x="297.0" y="89.7" fill="#bb9af7">#</tspan><tspan x="304.8" y="89.7" fill="#bb9af7">#</tspan><tspan x="312.6" y="89.7" fill="#bb9af7">#</tspan><tspan x="320.4" y="89.7" fill="#bb9af7">#</tspan><tspan x="328.2" y="89.7" fill="#bb9af7">#</tspan><tspan x="24.0" y="107.2" fill="#bb9af7">#</tspan><tspan x="31.8" y="107.2" fill="#bb9af7">#</tspan><tspan x="39.6" y="107.2" fill="#bb9af7">#</tspan><tspan x="47.4" y="107.2" fill="#bb9af7">#</tspan><tspan x="55.2" y="107.2" fill="#bb9af7">#</tspan><tspan x="63.0" y="107.2" fill="#bb9af7">#</tspan><tspan x="70.8" y="107.2" fill="#7aa2f7">#</tspan><tspan x="289.2" y="107.2" fill="#565f89">#</tspan><tspan x="297.0" y="107.2" fill="#bb9af7">#</tspan><tspan x="304.8" y="107.2" fill="#bb9af7">#</tspan><tspan x="312.6" y="107.2" fill="#bb9af7">#</tspan><tspan x="320.4" y="107.2" fill="#bb9af7">#</tspan><tspan x="328.2" y="107.2" fill="#bb9af7">#</tspan><tspan x="24.0" y="124.8" fill="#bb9af7">#</tspan><tspan x="31.8" y="124.8" fill="#bb9af7">#</tspan><tspan x="39.6" y="124.8" fill="#bb9af7">#</tspan><tspan x="47.4" y="124.8" fill="#bb9af7">#</tspan><tspan x="55.2" y="124.8" fill="#565f89">#</tspan><tspan x="63.0" y="124.8" fill="#565f89">#</tspan><tspan x="70.8" y="124.8" fill="#565f89">#</tspan><tspan x="297.0" y="124.8" fill="#565f89">#</tspan><tspan x="304.8" y="124.8" fill="#7aa2f7">#</tspan><tspan x="312.6" y="124.8" fill="#bb9af7">#</tspan><tspan x="320.4" y="124.8" fill="#bb9af7">#</tspan><tspan x="328.2" y="124.8" fill="#bb9af7">#</tspan><tspan x="24.0" y="142.3" fill="#bb9af7">#</tspan><tspan x="31.8" y="142.3" fill="#bb9af7">#</tspan><tspan x="39.6" y="142.3" fill="#bb9af7">#</tspan><tspan x="47.4" y="142.3" fill="#bb9af7">#</tspan><tspan x="63.0" y="142.3" fill="#565f89">#</tspan><tspan x="312.6" y="142.3" fill="#bb9af7">#</tspan><tspan x="320.4" y="142.3" fill="#bb9af7">#</tspan><tspan x="328.2" y="142.3" fill="#bb9af7">#</tspan><tspan x="24.0" y="159.8" fill="#bb9af7">#</tspan><tspan x="31.8" y="159.8" fill="#bb9af7">#</tspan><tspan x="39.6" y="159.8" fill="#bb9af7">#</tspan><tspan x="312.6" y="159.8" fill="#7aa2f7">#</tspan><tspan x="320.4" y="159.8" fill="#bb9af7">#</tspan><tspan x="328.2" y="159.8" fill="#bb9af7">#</tspan><tspan x="24.0" y="177.4" fill="#bb9af7">#</tspan><tspan x="31.8" y="177.4" fill="#bb9af7">#</tspan><tspan x="39.6" y="177.4" fill="#565f89">#</tspan><tspan x="133.2" y="177.4" fill="#3b4261">#</tspan><tspan x="141.0" y="177.4" fill="#3b4261">#</tspan><tspan x="156.6" y="177.4" fill="#3b4261">#</tspan><tspan x="164.4" y="177.4" fill="#565f89">#</tspan><tspan x="172.2" y="177.4" fill="#565f89">#</tspan><tspan x="180.0" y="177.4" fill="#565f89">#</tspan><tspan x="187.8" y="177.4" fill="#565f89">#</tspan><tspan x="195.6" y="177.4" fill="#3b4261">#</tspan><tspan x="312.6" y="177.4" fill="#565f89">#</tspan><tspan x="320.4" y="177.4" fill="#565f89">#</tspan><tspan x="328.2" y="177.4" fill="#bb9af7">#</tspan><tspan x="24.0" y="194.9" fill="#bb9af7">#</tspan><tspan x="31.8" y="194.9" fill="#bb9af7">#</tspan><tspan x="39.6" y="194.9" fill="#565f89">#</tspan><tspan x="117.6" y="194.9" fill="#3b4261">#</tspan><tspan x="125.4" y="194.9" fill="#565f89">#</tspan><tspan x="133.2" y="194.9" fill="#7aa2f7">#</tspan><tspan x="141.0" y="194.9" fill="#7aa2f7">#</tspan><tspan x="148.8" y="194.9" fill="#bb9af7">#</tspan><tspan x="156.6" y="194.9" fill="#bb9af7">#</tspan><tspan x="164.4" y="194.9" fill="#bb9af7">#</tspan><tspan x="172.2" y="194.9" fill="#bb9af7">#</tspan><tspan x="180.0" y="194.9" fill="#bb9af7">#</tspan><tspan x="187.8" y="194.9" fill="#bb9af7">#</tspan><tspan x="195.6" y="194.9" fill="#565f89">#</tspan><tspan x="203.4" y="194.9" fill="#565f89">#</tspan><tspan x="211.2" y="194.9" fill="#565f89">#</tspan><tspan x="219.0" y="194.9" fill="#3b4261">#</tspan><tspan x="320.4" y="194.9" fill="#3b4261">#</tspan><tspan x="328.2" y="194.9" fill="#bb9af7">#</tspan><tspan x="24.0" y="212.5" fill="#bb9af7">#</tspan><tspan x="31.8" y="212.5" fill="#bb9af7">#</tspan><tspan x="39.6" y="212.5" fill="#bb9af7">#</tspan><tspan x="47.4" y="212.5" fill="#565f89">#</tspan><tspan x="102.0" y="212.5" fill="#565f89">#</tspan><tspan x="109.8" y="212.5" fill="#bb9af7">#</tspan><tspan x="117.6" y="212.5" fill="#bb9af7">#</tspan><tspan x="125.4" y="212.5" fill="#bb9af7">#</tspan><tspan x="133.2" y="212.5" fill="#bb9af7">#</tspan><tspan x="141.0" y="212.5" fill="#bb9af7">#</tspan><tspan x="148.8" y="212.5" fill="#bb9af7">#</tspan><tspan x="156.6" y="212.5" fill="#bb9af7">#</tspan><tspan x="164.4" y="212.5" fill="#bb9af7">#</tspan><tspan x="172.2" y="212.5" fill="#bb9af7">#</tspan><tspan x="180.0" y="212.5" fill="#bb9af7">#</tspan><tspan x="187.8" y="212.5" fill="#bb9af7">#</tspan><tspan x="195.6" y="212.5" fill="#bb9af7">#</tspan><tspan x="203.4" y="212.5" fill="#bb9af7">#</tspan><tspan x="211.2" y="212.5" fill="#7aa2f7">#</tspan><tspan x="219.0" y="212.5" fill="#565f89">#</tspan><tspan x="226.8" y="212.5" fill="#565f89">#</tspan><tspan x="234.6" y="212.5" fill="#565f89">#</tspan><tspan x="320.4" y="212.5" fill="#565f89">#</tspan><tspan x="328.2" y="212.5" fill="#bb9af7">#</tspan><tspan x="24.0" y="230.1" fill="#bb9af7">#</tspan><tspan x="31.8" y="230.1" fill="#bb9af7">#</tspan><tspan x="39.6" y="230.1" fill="#bb9af7">#</tspan><tspan x="94.2" y="230.1" fill="#7aa2f7">#</tspan><tspan x="102.0" y="230.1" fill="#bb9af7">#</tspan><tspan x="109.8" y="230.1" fill="#bb9af7">#</tspan><tspan x="117.6" y="230.1" fill="#bb9af7">#</tspan><tspan x="125.4" y="230.1" fill="#bb9af7">#</tspan><tspan x="133.2" y="230.1" fill="#bb9af7">#</tspan><tspan x="141.0" y="230.1" fill="#bb9af7">#</tspan><tspan x="148.8" y="230.1" fill="#bb9af7">#</tspan><tspan x="156.6" y="230.1" fill="#bb9af7">#</tspan><tspan x="164.4" y="230.1" fill="#bb9af7">#</tspan><tspan x="172.2" y="230.1" fill="#bb9af7">#</tspan><tspan x="180.0" y="230.1" fill="#bb9af7">#</tspan><tspan x="187.8" y="230.1" fill="#bb9af7">#</tspan><tspan x="195.6" y="230.1" fill="#bb9af7">#</tspan><tspan x="203.4" y="230.1" fill="#bb9af7">#</tspan><tspan x="211.2" y="230.1" fill="#bb9af7">#</tspan><tspan x="219.0" y="230.1" fill="#bb9af7">#</tspan><tspan x="226.8" y="230.1" fill="#bb9af7">#</tspan><tspan x="234.6" y="230.1" fill="#bb9af7">#</tspan><tspan x="242.4" y="230.1" fill="#7aa2f7">#</tspan><tspan x="250.2" y="230.1" fill="#565f89">#</tspan><tspan x="258.0" y="230.1" fill="#3b4261">#</tspan><tspan x="312.6" y="230.1" fill="#565f89">#</tspan><tspan x="320.4" y="230.1" fill="#bb9af7">#</tspan><tspan x="328.2" y="230.1" fill="#bb9af7">#</tspan><tspan x="24.0" y="247.6" fill="#bb9af7">#</tspan><tspan x="31.8" y="247.6" fill="#bb9af7">#</tspan><tspan x="39.6" y="247.6" fill="#bb9af7">#</tspan><tspan x="86.4" y="247.6" fill="#565f89">#</tspan><tspan x="94.2" y="247.6" fill="#bb9af7">#</tspan><tspan x="102.0" y="247.6" fill="#bb9af7">#</tspan><tspan x="109.8" y="247.6" fill="#bb9af7">#</tspan><tspan x="117.6" y="247.6" fill="#bb9af7">#</tspan><tspan x="125.4" y="247.6" fill="#bb9af7">#</tspan><tspan x="133.2" y="247.6" fill="#bb9af7">#</tspan><tspan x="141.0" y="247.6" fill="#bb9af7">#</tspan><tspan x="148.8" y="247.6" fill="#bb9af7">#</tspan><tspan x="156.6" y="247.6" fill="#bb9af7">#</tspan><tspan x="164.4" y="247.6" fill="#bb9af7">#</tspan><tspan x="172.2" y="247.6" fill="#bb9af7">#</tspan><tspan x="180.0" y="247.6" fill="#bb9af7">#</tspan><tspan x="187.8" y="247.6" fill="#bb9af7">#</tspan><tspan x="195.6" y="247.6" fill="#bb9af7">#</tspan><tspan x="203.4" y="247.6" fill="#bb9af7">#</tspan><tspan x="211.2" y="247.6" fill="#bb9af7">#</tspan><tspan x="219.0" y="247.6" fill="#bb9af7">#</tspan><tspan x="226.8" y="247.6" fill="#bb9af7">#</tspan><tspan x="234.6" y="247.6" fill="#bb9af7">#</tspan><tspan x="242.4" y="247.6" fill="#bb9af7">#</tspan><tspan x="250.2" y="247.6" fill="#565f89">#</tspan><tspan x="258.0" y="247.6" fill="#565f89">#</tspan><tspan x="265.8" y="247.6" fill="#3b4261">#</tspan><tspan x="312.6" y="247.6" fill="#bb9af7">#</tspan><tspan x="320.4" y="247.6" fill="#bb9af7">#</tspan><tspan x="328.2" y="247.6" fill="#bb9af7">#</tspan><tspan x="24.0" y="265.2" fill="#bb9af7">#</tspan><tspan x="31.8" y="265.2" fill="#bb9af7">#</tspan><tspan x="39.6" y="265.2" fill="#bb9af7">#</tspan><tspan x="47.4" y="265.2" fill="#bb9af7">#</tspan><tspan x="55.2" y="265.2" fill="#bb9af7">#</tspan><tspan x="63.0" y="265.2" fill="#7aa2f7">#</tspan><tspan x="86.4" y="265.2" fill="#565f89">#</tspan><tspan x="94.2" y="265.2" fill="#bb9af7">#</tspan><tspan x="102.0" y="265.2" fill="#565f89">#</tspan><tspan x="109.8" y="265.2" fill="#565f89">#</tspan><tspan x="172.2" y="265.2" fill="#3b4261">#</tspan><tspan x="180.0" y="265.2" fill="#565f89">#</tspan><tspan x="187.8" y="265.2" fill="#7aa2f7">#</tspan><tspan x="195.6" y="265.2" fill="#7aa2f7">#</tspan><tspan x="203.4" y="265.2" fill="#565f89">#</tspan><tspan x="211.2" y="265.2" fill="#3b4261">#</tspan><tspan x="219.0" y="265.2" fill="#3b4261">#</tspan><tspan x="226.8" y="265.2" fill="#565f89">#</tspan><tspan x="234.6" y="265.2" fill="#565f89">#</tspan><tspan x="273.6" y="265.2" fill="#565f89">#</tspan><tspan x="281.4" y="265.2" fill="#3b4261">#</tspan><tspan x="289.2" y="265.2" fill="#565f89">#</tspan><tspan x="304.8" y="265.2" fill="#565f89">#</tspan><tspan x="312.6" y="265.2" fill="#bb9af7">#</tspan><tspan x="320.4" y="265.2" fill="#bb9af7">#</tspan><tspan x="328.2" y="265.2" fill="#bb9af7">#</tspan><tspan x="24.0" y="282.7" fill="#bb9af7">#</tspan><tspan x="31.8" y="282.7" fill="#bb9af7">#</tspan><tspan x="39.6" y="282.7" fill="#bb9af7">#</tspan><tspan x="47.4" y="282.7" fill="#bb9af7">#</tspan><tspan x="55.2" y="282.7" fill="#bb9af7">#</tspan><tspan x="63.0" y="282.7" fill="#bb9af7">#</tspan><tspan x="70.8" y="282.7" fill="#3b4261">#</tspan><tspan x="86.4" y="282.7" fill="#7aa2f7">#</tspan><tspan x="94.2" y="282.7" fill="#3b4261">#</tspan><tspan x="102.0" y="282.7" fill="#7aa2f7">#</tspan><tspan x="109.8" y="282.7" fill="#bb9af7">#</tspan><tspan x="117.6" y="282.7" fill="#7aa2f7">#</tspan><tspan x="125.4" y="282.7" fill="#3b4261">#</tspan><tspan x="172.2" y="282.7" fill="#3b4261">#</tspan><tspan x="187.8" y="282.7" fill="#bb9af7">#</tspan><tspan x="195.6" y="282.7" fill="#7aa2f7">#</tspan><tspan x="211.2" y="282.7" fill="#3b4261">#</tspan><tspan x="265.8" y="282.7" fill="#3b4261">#</tspan><tspan x="273.6" y="282.7" fill="#3b4261">#</tspan><tspan x="281.4" y="282.7" fill="#3b4261">#</tspan><tspan x="289.2" y="282.7" fill="#3b4261">#</tspan><tspan x="304.8" y="282.7" fill="#bb9af7">#</tspan><tspan x="312.6" y="282.7" fill="#bb9af7">#</tspan><tspan x="320.4" y="282.7" fill="#bb9af7">#</tspan><tspan x="328.2" y="282.7" fill="#bb9af7">#</tspan><tspan x="24.0" y="300.2" fill="#bb9af7">#</tspan><tspan x="31.8" y="300.2" fill="#bb9af7">#</tspan><tspan x="39.6" y="300.2" fill="#bb9af7">#</tspan><tspan x="47.4" y="300.2" fill="#bb9af7">#</tspan><tspan x="55.2" y="300.2" fill="#bb9af7">#</tspan><tspan x="63.0" y="300.2" fill="#7aa2f7">#</tspan><tspan x="70.8" y="300.2" fill="#bb9af7">#</tspan><tspan x="78.6" y="300.2" fill="#bb9af7">#</tspan><tspan x="86.4" y="300.2" fill="#565f89">#</tspan><tspan x="94.2" y="300.2" fill="#7aa2f7">#</tspan><tspan x="102.0" y="300.2" fill="#bb9af7">#</tspan><tspan x="109.8" y="300.2" fill="#7aa2f7">#</tspan><tspan x="117.6" y="300.2" fill="#565f89">#</tspan><tspan x="125.4" y="300.2" fill="#3b4261">#</tspan><tspan x="133.2" y="300.2" fill="#565f89">#</tspan><tspan x="172.2" y="300.2" fill="#3b4261">#</tspan><tspan x="180.0" y="300.2" fill="#7aa2f7">#</tspan><tspan x="187.8" y="300.2" fill="#bb9af7">#</tspan><tspan x="195.6" y="300.2" fill="#bb9af7">#</tspan><tspan x="211.2" y="300.2" fill="#bb9af7">#</tspan><tspan x="258.0" y="300.2" fill="#3b4261">#</tspan><tspan x="273.6" y="300.2" fill="#3b4261">#</tspan><tspan x="281.4" y="300.2" fill="#565f89">#</tspan><tspan x="289.2" y="300.2" fill="#565f89">#</tspan><tspan x="297.0" y="300.2" fill="#565f89">#</tspan><tspan x="304.8" y="300.2" fill="#7aa2f7">#</tspan><tspan x="312.6" y="300.2" fill="#bb9af7">#</tspan><tspan x="320.4" y="300.2" fill="#bb9af7">#</tspan><tspan x="328.2" y="300.2" fill="#bb9af7">#</tspan><tspan x="24.0" y="317.8" fill="#bb9af7">#</tspan><tspan x="31.8" y="317.8" fill="#bb9af7">#</tspan><tspan x="39.6" y="317.8" fill="#bb9af7">#</tspan><tspan x="47.4" y="317.8" fill="#bb9af7">#</tspan><tspan x="55.2" y="317.8" fill="#bb9af7">#</tspan><tspan x="63.0" y="317.8" fill="#bb9af7">#</tspan><tspan x="70.8" y="317.8" fill="#7aa2f7">#</tspan><tspan x="78.6" y="317.8" fill="#565f89">#</tspan><tspan x="86.4" y="317.8" fill="#bb9af7">#</tspan><tspan x="94.2" y="317.8" fill="#bb9af7">#</tspan><tspan x="102.0" y="317.8" fill="#bb9af7">#</tspan><tspan x="109.8" y="317.8" fill="#bb9af7">#</tspan><tspan x="117.6" y="317.8" fill="#bb9af7">#</tspan><tspan x="125.4" y="317.8" fill="#bb9af7">#</tspan><tspan x="133.2" y="317.8" fill="#bb9af7">#</tspan><tspan x="141.0" y="317.8" fill="#7aa2f7">#</tspan><tspan x="148.8" y="317.8" fill="#7aa2f7">#</tspan><tspan x="156.6" y="317.8" fill="#7aa2f7">#</tspan><tspan x="164.4" y="317.8" fill="#bb9af7">#</tspan><tspan x="172.2" y="317.8" fill="#565f89">#</tspan><tspan x="180.0" y="317.8" fill="#bb9af7">#</tspan><tspan x="187.8" y="317.8" fill="#bb9af7">#</tspan><tspan x="195.6" y="317.8" fill="#bb9af7">#</tspan><tspan x="203.4" y="317.8" fill="#bb9af7">#</tspan><tspan x="211.2" y="317.8" fill="#565f89">#</tspan><tspan x="219.0" y="317.8" fill="#3b4261">#</tspan><tspan x="226.8" y="317.8" fill="#565f89">#</tspan><tspan x="234.6" y="317.8" fill="#565f89">#</tspan><tspan x="242.4" y="317.8" fill="#565f89">#</tspan><tspan x="250.2" y="317.8" fill="#565f89">#</tspan><tspan x="258.0" y="317.8" fill="#565f89">#</tspan><tspan x="265.8" y="317.8" fill="#7aa2f7">#</tspan><tspan x="273.6" y="317.8" fill="#bb9af7">#</tspan><tspan x="281.4" y="317.8" fill="#bb9af7">#</tspan><tspan x="289.2" y="317.8" fill="#bb9af7">#</tspan><tspan x="297.0" y="317.8" fill="#565f89">#</tspan><tspan x="304.8" y="317.8" fill="#565f89">#</tspan><tspan x="312.6" y="317.8" fill="#bb9af7">#</tspan><tspan x="320.4" y="317.8" fill="#bb9af7">#</tspan><tspan x="328.2" y="317.8" fill="#bb9af7">#</tspan><tspan x="24.0" y="335.4" fill="#bb9af7">#</tspan><tspan x="31.8" y="335.4" fill="#bb9af7">#</tspan><tspan x="39.6" y="335.4" fill="#bb9af7">#</tspan><tspan x="47.4" y="335.4" fill="#bb9af7">#</tspan><tspan x="55.2" y="335.4" fill="#bb9af7">#</tspan><tspan x="63.0" y="335.4" fill="#bb9af7">#</tspan><tspan x="70.8" y="335.4" fill="#565f89">#</tspan><tspan x="78.6" y="335.4" fill="#bb9af7">#</tspan><tspan x="86.4" y="335.4" fill="#bb9af7">#</tspan><tspan x="94.2" y="335.4" fill="#bb9af7">#</tspan><tspan x="102.0" y="335.4" fill="#bb9af7">#</tspan><tspan x="109.8" y="335.4" fill="#bb9af7">#</tspan><tspan x="117.6" y="335.4" fill="#bb9af7">#</tspan><tspan x="125.4" y="335.4" fill="#bb9af7">#</tspan><tspan x="133.2" y="335.4" fill="#bb9af7">#</tspan><tspan x="141.0" y="335.4" fill="#bb9af7">#</tspan><tspan x="148.8" y="335.4" fill="#bb9af7">#</tspan><tspan x="156.6" y="335.4" fill="#bb9af7">#</tspan><tspan x="164.4" y="335.4" fill="#bb9af7">#</tspan><tspan x="172.2" y="335.4" fill="#565f89">#</tspan><tspan x="180.0" y="335.4" fill="#bb9af7">#</tspan><tspan x="187.8" y="335.4" fill="#bb9af7">#</tspan><tspan x="195.6" y="335.4" fill="#bb9af7">#</tspan><tspan x="203.4" y="335.4" fill="#bb9af7">#</tspan><tspan x="211.2" y="335.4" fill="#bb9af7">#</tspan><tspan x="219.0" y="335.4" fill="#7aa2f7">#</tspan><tspan x="226.8" y="335.4" fill="#7aa2f7">#</tspan><tspan x="234.6" y="335.4" fill="#bb9af7">#</tspan><tspan x="242.4" y="335.4" fill="#bb9af7">#</tspan><tspan x="250.2" y="335.4" fill="#bb9af7">#</tspan><tspan x="258.0" y="335.4" fill="#bb9af7">#</tspan><tspan x="265.8" y="335.4" fill="#bb9af7">#</tspan><tspan x="273.6" y="335.4" fill="#bb9af7">#</tspan><tspan x="281.4" y="335.4" fill="#bb9af7">#</tspan><tspan x="289.2" y="335.4" fill="#bb9af7">#</tspan><tspan x="297.0" y="335.4" fill="#3b4261">#</tspan><tspan x="304.8" y="335.4" fill="#bb9af7">#</tspan><tspan x="312.6" y="335.4" fill="#bb9af7">#</tspan><tspan x="320.4" y="335.4" fill="#bb9af7">#</tspan><tspan x="328.2" y="335.4" fill="#bb9af7">#</tspan><tspan x="24.0" y="352.9" fill="#bb9af7">#</tspan><tspan x="31.8" y="352.9" fill="#bb9af7">#</tspan><tspan x="39.6" y="352.9" fill="#bb9af7">#</tspan><tspan x="47.4" y="352.9" fill="#bb9af7">#</tspan><tspan x="55.2" y="352.9" fill="#bb9af7">#</tspan><tspan x="63.0" y="352.9" fill="#bb9af7">#</tspan><tspan x="70.8" y="352.9" fill="#bb9af7">#</tspan><tspan x="78.6" y="352.9" fill="#bb9af7">#</tspan><tspan x="86.4" y="352.9" fill="#565f89">#</tspan><tspan x="94.2" y="352.9" fill="#bb9af7">#</tspan><tspan x="102.0" y="352.9" fill="#bb9af7">#</tspan><tspan x="109.8" y="352.9" fill="#bb9af7">#</tspan><tspan x="117.6" y="352.9" fill="#bb9af7">#</tspan><tspan x="125.4" y="352.9" fill="#bb9af7">#</tspan><tspan x="133.2" y="352.9" fill="#bb9af7">#</tspan><tspan x="141.0" y="352.9" fill="#bb9af7">#</tspan><tspan x="148.8" y="352.9" fill="#7aa2f7">#</tspan><tspan x="156.6" y="352.9" fill="#565f89">#</tspan><tspan x="164.4" y="352.9" fill="#bb9af7">#</tspan><tspan x="172.2" y="352.9" fill="#bb9af7">#</tspan><tspan x="180.0" y="352.9" fill="#bb9af7">#</tspan><tspan x="187.8" y="352.9" fill="#bb9af7">#</tspan><tspan x="195.6" y="352.9" fill="#bb9af7">#</tspan><tspan x="203.4" y="352.9" fill="#bb9af7">#</tspan><tspan x="211.2" y="352.9" fill="#bb9af7">#</tspan><tspan x="219.0" y="352.9" fill="#bb9af7">#</tspan><tspan x="234.6" y="352.9" fill="#7aa2f7">#</tspan><tspan x="242.4" y="352.9" fill="#bb9af7">#</tspan><tspan x="250.2" y="352.9" fill="#bb9af7">#</tspan><tspan x="258.0" y="352.9" fill="#bb9af7">#</tspan><tspan x="265.8" y="352.9" fill="#bb9af7">#</tspan><tspan x="273.6" y="352.9" fill="#bb9af7">#</tspan><tspan x="281.4" y="352.9" fill="#bb9af7">#</tspan><tspan x="289.2" y="352.9" fill="#bb9af7">#</tspan><tspan x="297.0" y="352.9" fill="#bb9af7">#</tspan><tspan x="304.8" y="352.9" fill="#bb9af7">#</tspan><tspan x="312.6" y="352.9" fill="#bb9af7">#</tspan><tspan x="320.4" y="352.9" fill="#bb9af7">#</tspan><tspan x="328.2" y="352.9" fill="#bb9af7">#</tspan><tspan x="24.0" y="370.4" fill="#bb9af7">#</tspan><tspan x="31.8" y="370.4" fill="#bb9af7">#</tspan><tspan x="39.6" y="370.4" fill="#bb9af7">#</tspan><tspan x="47.4" y="370.4" fill="#bb9af7">#</tspan><tspan x="55.2" y="370.4" fill="#bb9af7">#</tspan><tspan x="63.0" y="370.4" fill="#bb9af7">#</tspan><tspan x="70.8" y="370.4" fill="#bb9af7">#</tspan><tspan x="78.6" y="370.4" fill="#bb9af7">#</tspan><tspan x="86.4" y="370.4" fill="#7aa2f7">#</tspan><tspan x="94.2" y="370.4" fill="#bb9af7">#</tspan><tspan x="102.0" y="370.4" fill="#bb9af7">#</tspan><tspan x="109.8" y="370.4" fill="#bb9af7">#</tspan><tspan x="117.6" y="370.4" fill="#bb9af7">#</tspan><tspan x="125.4" y="370.4" fill="#bb9af7">#</tspan><tspan x="133.2" y="370.4" fill="#7aa2f7">#</tspan><tspan x="141.0" y="370.4" fill="#565f89">#</tspan><tspan x="156.6" y="370.4" fill="#3b4261">#</tspan><tspan x="164.4" y="370.4" fill="#565f89">#</tspan><tspan x="172.2" y="370.4" fill="#565f89">#</tspan><tspan x="180.0" y="370.4" fill="#565f89">#</tspan><tspan x="187.8" y="370.4" fill="#565f89">#</tspan><tspan x="195.6" y="370.4" fill="#565f89">#</tspan><tspan x="203.4" y="370.4" fill="#565f89">#</tspan><tspan x="211.2" y="370.4" fill="#3b4261">#</tspan><tspan x="219.0" y="370.4" fill="#565f89">#</tspan><tspan x="242.4" y="370.4" fill="#3b4261">#</tspan><tspan x="250.2" y="370.4" fill="#565f89">#</tspan><tspan x="258.0" y="370.4" fill="#bb9af7">#</tspan><tspan x="265.8" y="370.4" fill="#bb9af7">#</tspan><tspan x="273.6" y="370.4" fill="#bb9af7">#</tspan><tspan x="281.4" y="370.4" fill="#bb9af7">#</tspan><tspan x="289.2" y="370.4" fill="#565f89">#</tspan><tspan x="297.0" y="370.4" fill="#bb9af7">#</tspan><tspan x="304.8" y="370.4" fill="#bb9af7">#</tspan><tspan x="312.6" y="370.4" fill="#bb9af7">#</tspan><tspan x="320.4" y="370.4" fill="#bb9af7">#</tspan><tspan x="328.2" y="370.4" fill="#bb9af7">#</tspan><tspan x="24.0" y="388.0" fill="#bb9af7">#</tspan><tspan x="31.8" y="388.0" fill="#bb9af7">#</tspan><tspan x="39.6" y="388.0" fill="#bb9af7">#</tspan><tspan x="47.4" y="388.0" fill="#bb9af7">#</tspan><tspan x="55.2" y="388.0" fill="#bb9af7">#</tspan><tspan x="63.0" y="388.0" fill="#bb9af7">#</tspan><tspan x="70.8" y="388.0" fill="#bb9af7">#</tspan><tspan x="78.6" y="388.0" fill="#bb9af7">#</tspan><tspan x="86.4" y="388.0" fill="#565f89">#</tspan><tspan x="94.2" y="388.0" fill="#3b4261">#</tspan><tspan x="102.0" y="388.0" fill="#3b4261">#</tspan><tspan x="109.8" y="388.0" fill="#bb9af7">#</tspan><tspan x="117.6" y="388.0" fill="#7aa2f7">#</tspan><tspan x="125.4" y="388.0" fill="#7aa2f7">#</tspan><tspan x="156.6" y="388.0" fill="#3b4261">#</tspan><tspan x="164.4" y="388.0" fill="#3b4261">#</tspan><tspan x="265.8" y="388.0" fill="#565f89">#</tspan><tspan x="273.6" y="388.0" fill="#7aa2f7">#</tspan><tspan x="281.4" y="388.0" fill="#3b4261">#</tspan><tspan x="289.2" y="388.0" fill="#565f89">#</tspan><tspan x="297.0" y="388.0" fill="#bb9af7">#</tspan><tspan x="304.8" y="388.0" fill="#bb9af7">#</tspan><tspan x="312.6" y="388.0" fill="#bb9af7">#</tspan><tspan x="320.4" y="388.0" fill="#bb9af7">#</tspan><tspan x="328.2" y="388.0" fill="#bb9af7">#</tspan><tspan x="24.0" y="405.6" fill="#bb9af7">#</tspan><tspan x="31.8" y="405.6" fill="#bb9af7">#</tspan><tspan x="39.6" y="405.6" fill="#bb9af7">#</tspan><tspan x="47.4" y="405.6" fill="#bb9af7">#</tspan><tspan x="55.2" y="405.6" fill="#bb9af7">#</tspan><tspan x="63.0" y="405.6" fill="#bb9af7">#</tspan><tspan x="70.8" y="405.6" fill="#bb9af7">#</tspan><tspan x="78.6" y="405.6" fill="#bb9af7">#</tspan><tspan x="86.4" y="405.6" fill="#7aa2f7">#</tspan><tspan x="102.0" y="405.6" fill="#565f89">#</tspan><tspan x="117.6" y="405.6" fill="#565f89">#</tspan><tspan x="125.4" y="405.6" fill="#bb9af7">#</tspan><tspan x="133.2" y="405.6" fill="#3b4261">#</tspan><tspan x="148.8" y="405.6" fill="#565f89">#</tspan><tspan x="156.6" y="405.6" fill="#7aa2f7">#</tspan><tspan x="164.4" y="405.6" fill="#bb9af7">#</tspan><tspan x="172.2" y="405.6" fill="#bb9af7">#</tspan><tspan x="180.0" y="405.6" fill="#bb9af7">#</tspan><tspan x="187.8" y="405.6" fill="#bb9af7">#</tspan><tspan x="195.6" y="405.6" fill="#7aa2f7">#</tspan><tspan x="203.4" y="405.6" fill="#7aa2f7">#</tspan><tspan x="211.2" y="405.6" fill="#7aa2f7">#</tspan><tspan x="219.0" y="405.6" fill="#565f89">#</tspan><tspan x="226.8" y="405.6" fill="#565f89">#</tspan><tspan x="234.6" y="405.6" fill="#565f89">#</tspan><tspan x="265.8" y="405.6" fill="#565f89">#</tspan><tspan x="289.2" y="405.6" fill="#7aa2f7">#</tspan><tspan x="297.0" y="405.6" fill="#bb9af7">#</tspan><tspan x="304.8" y="405.6" fill="#bb9af7">#</tspan><tspan x="312.6" y="405.6" fill="#bb9af7">#</tspan><tspan x="320.4" y="405.6" fill="#bb9af7">#</tspan><tspan x="328.2" y="405.6" fill="#bb9af7">#</tspan><tspan x="24.0" y="423.1" fill="#bb9af7">#</tspan><tspan x="31.8" y="423.1" fill="#bb9af7">#</tspan><tspan x="39.6" y="423.1" fill="#bb9af7">#</tspan><tspan x="47.4" y="423.1" fill="#bb9af7">#</tspan><tspan x="55.2" y="423.1" fill="#bb9af7">#</tspan><tspan x="63.0" y="423.1" fill="#bb9af7">#</tspan><tspan x="70.8" y="423.1" fill="#bb9af7">#</tspan><tspan x="78.6" y="423.1" fill="#bb9af7">#</tspan><tspan x="86.4" y="423.1" fill="#bb9af7">#</tspan><tspan x="102.0" y="423.1" fill="#3b4261">#</tspan><tspan x="109.8" y="423.1" fill="#3b4261">#</tspan><tspan x="117.6" y="423.1" fill="#3b4261">#</tspan><tspan x="125.4" y="423.1" fill="#565f89">#</tspan><tspan x="133.2" y="423.1" fill="#7aa2f7">#</tspan><tspan x="141.0" y="423.1" fill="#7aa2f7">#</tspan><tspan x="148.8" y="423.1" fill="#7aa2f7">#</tspan><tspan x="156.6" y="423.1" fill="#bb9af7">#</tspan><tspan x="164.4" y="423.1" fill="#7aa2f7">#</tspan><tspan x="172.2" y="423.1" fill="#565f89">#</tspan><tspan x="180.0" y="423.1" fill="#3b4261">#</tspan><tspan x="187.8" y="423.1" fill="#3b4261">#</tspan><tspan x="195.6" y="423.1" fill="#565f89">#</tspan><tspan x="203.4" y="423.1" fill="#3b4261">#</tspan><tspan x="211.2" y="423.1" fill="#565f89">#</tspan><tspan x="219.0" y="423.1" fill="#565f89">#</tspan><tspan x="226.8" y="423.1" fill="#565f89">#</tspan><tspan x="234.6" y="423.1" fill="#7aa2f7">#</tspan><tspan x="242.4" y="423.1" fill="#3b4261">#</tspan><tspan x="250.2" y="423.1" fill="#3b4261">#</tspan><tspan x="258.0" y="423.1" fill="#3b4261">#</tspan><tspan x="289.2" y="423.1" fill="#bb9af7">#</tspan><tspan x="297.0" y="423.1" fill="#bb9af7">#</tspan><tspan x="304.8" y="423.1" fill="#bb9af7">#</tspan><tspan x="312.6" y="423.1" fill="#bb9af7">#</tspan><tspan x="320.4" y="423.1" fill="#bb9af7">#</tspan><tspan x="328.2" y="423.1" fill="#bb9af7">#</tspan><tspan x="24.0" y="440.7" fill="#bb9af7">#</tspan><tspan x="31.8" y="440.7" fill="#bb9af7">#</tspan><tspan x="39.6" y="440.7" fill="#bb9af7">#</tspan><tspan x="47.4" y="440.7" fill="#bb9af7">#</tspan><tspan x="55.2" y="440.7" fill="#bb9af7">#</tspan><tspan x="63.0" y="440.7" fill="#bb9af7">#</tspan><tspan x="70.8" y="440.7" fill="#bb9af7">#</tspan><tspan x="78.6" y="440.7" fill="#bb9af7">#</tspan><tspan x="86.4" y="440.7" fill="#bb9af7">#</tspan><tspan x="94.2" y="440.7" fill="#bb9af7">#</tspan><tspan x="109.8" y="440.7" fill="#3b4261">#</tspan><tspan x="125.4" y="440.7" fill="#3b4261">#</tspan><tspan x="133.2" y="440.7" fill="#565f89">#</tspan><tspan x="141.0" y="440.7" fill="#3b4261">#</tspan><tspan x="148.8" y="440.7" fill="#565f89">#</tspan><tspan x="156.6" y="440.7" fill="#bb9af7">#</tspan><tspan x="164.4" y="440.7" fill="#7aa2f7">#</tspan><tspan x="226.8" y="440.7" fill="#3b4261">#</tspan><tspan x="234.6" y="440.7" fill="#565f89">#</tspan><tspan x="281.4" y="440.7" fill="#bb9af7">#</tspan><tspan x="289.2" y="440.7" fill="#bb9af7">#</tspan><tspan x="297.0" y="440.7" fill="#bb9af7">#</tspan><tspan x="304.8" y="440.7" fill="#bb9af7">#</tspan><tspan x="312.6" y="440.7" fill="#bb9af7">#</tspan><tspan x="320.4" y="440.7" fill="#bb9af7">#</tspan><tspan x="328.2" y="440.7" fill="#bb9af7">#</tspan><tspan x="24.0" y="458.2" fill="#bb9af7">#</tspan><tspan x="31.8" y="458.2" fill="#bb9af7">#</tspan><tspan x="39.6" y="458.2" fill="#bb9af7">#</tspan><tspan x="47.4" y="458.2" fill="#bb9af7">#</tspan><tspan x="55.2" y="458.2" fill="#bb9af7">#</tspan><tspan x="63.0" y="458.2" fill="#bb9af7">#</tspan><tspan x="70.8" y="458.2" fill="#bb9af7">#</tspan><tspan x="78.6" y="458.2" fill="#bb9af7">#</tspan><tspan x="86.4" y="458.2" fill="#bb9af7">#</tspan><tspan x="94.2" y="458.2" fill="#bb9af7">#</tspan><tspan x="102.0" y="458.2" fill="#bb9af7">#</tspan><tspan x="109.8" y="458.2" fill="#3b4261">#</tspan><tspan x="133.2" y="458.2" fill="#3b4261">#</tspan><tspan x="156.6" y="458.2" fill="#565f89">#</tspan><tspan x="164.4" y="458.2" fill="#7aa2f7">#</tspan><tspan x="172.2" y="458.2" fill="#565f89">#</tspan><tspan x="187.8" y="458.2" fill="#3b4261">#</tspan><tspan x="195.6" y="458.2" fill="#3b4261">#</tspan><tspan x="265.8" y="458.2" fill="#3b4261">#</tspan><tspan x="273.6" y="458.2" fill="#bb9af7">#</tspan><tspan x="281.4" y="458.2" fill="#bb9af7">#</tspan><tspan x="289.2" y="458.2" fill="#bb9af7">#</tspan><tspan x="297.0" y="458.2" fill="#bb9af7">#</tspan><tspan x="304.8" y="458.2" fill="#bb9af7">#</tspan><tspan x="312.6" y="458.2" fill="#bb9af7">#</tspan><tspan x="320.4" y="458.2" fill="#bb9af7">#</tspan><tspan x="328.2" y="458.2" fill="#bb9af7">#</tspan><tspan x="24.0" y="475.8" fill="#bb9af7">#</tspan><tspan x="31.8" y="475.8" fill="#bb9af7">#</tspan><tspan x="39.6" y="475.8" fill="#bb9af7">#</tspan><tspan x="47.4" y="475.8" fill="#bb9af7">#</tspan><tspan x="55.2" y="475.8" fill="#bb9af7">#</tspan><tspan x="63.0" y="475.8" fill="#bb9af7">#</tspan><tspan x="70.8" y="475.8" fill="#bb9af7">#</tspan><tspan x="78.6" y="475.8" fill="#bb9af7">#</tspan><tspan x="86.4" y="475.8" fill="#bb9af7">#</tspan><tspan x="94.2" y="475.8" fill="#bb9af7">#</tspan><tspan x="102.0" y="475.8" fill="#bb9af7">#</tspan><tspan x="109.8" y="475.8" fill="#565f89">#</tspan><tspan x="117.6" y="475.8" fill="#7aa2f7">#</tspan><tspan x="164.4" y="475.8" fill="#3b4261">#</tspan><tspan x="180.0" y="475.8" fill="#3b4261">#</tspan><tspan x="187.8" y="475.8" fill="#3b4261">#</tspan><tspan x="203.4" y="475.8" fill="#3b4261">#</tspan><tspan x="211.2" y="475.8" fill="#3b4261">#</tspan><tspan x="265.8" y="475.8" fill="#bb9af7">#</tspan><tspan x="273.6" y="475.8" fill="#bb9af7">#</tspan><tspan x="281.4" y="475.8" fill="#bb9af7">#</tspan><tspan x="289.2" y="475.8" fill="#bb9af7">#</tspan><tspan x="297.0" y="475.8" fill="#bb9af7">#</tspan><tspan x="304.8" y="475.8" fill="#bb9af7">#</tspan><tspan x="312.6" y="475.8" fill="#bb9af7">#</tspan><tspan x="320.4" y="475.8" fill="#bb9af7">#</tspan><tspan x="328.2" y="475.8" fill="#bb9af7">#</tspan><tspan x="24.0" y="493.3" fill="#bb9af7">#</tspan><tspan x="31.8" y="493.3" fill="#bb9af7">#</tspan><tspan x="39.6" y="493.3" fill="#bb9af7">#</tspan><tspan x="47.4" y="493.3" fill="#bb9af7">#</tspan><tspan x="55.2" y="493.3" fill="#bb9af7">#</tspan><tspan x="63.0" y="493.3" fill="#bb9af7">#</tspan><tspan x="70.8" y="493.3" fill="#bb9af7">#</tspan><tspan x="78.6" y="493.3" fill="#bb9af7">#</tspan><tspan x="86.4" y="493.3" fill="#bb9af7">#</tspan><tspan x="94.2" y="493.3" fill="#bb9af7">#</tspan><tspan x="102.0" y="493.3" fill="#bb9af7">#</tspan><tspan x="109.8" y="493.3" fill="#565f89">#</tspan><tspan x="117.6" y="493.3" fill="#bb9af7">#</tspan><tspan x="125.4" y="493.3" fill="#bb9af7">#</tspan><tspan x="133.2" y="493.3" fill="#bb9af7">#</tspan><tspan x="258.0" y="493.3" fill="#7aa2f7">#</tspan><tspan x="265.8" y="493.3" fill="#bb9af7">#</tspan><tspan x="273.6" y="493.3" fill="#bb9af7">#</tspan><tspan x="281.4" y="493.3" fill="#bb9af7">#</tspan><tspan x="289.2" y="493.3" fill="#bb9af7">#</tspan><tspan x="297.0" y="493.3" fill="#bb9af7">#</tspan><tspan x="304.8" y="493.3" fill="#bb9af7">#</tspan><tspan x="312.6" y="493.3" fill="#bb9af7">#</tspan><tspan x="320.4" y="493.3" fill="#bb9af7">#</tspan><tspan x="328.2" y="493.3" fill="#bb9af7">#</tspan><tspan x="24.0" y="510.9" fill="#bb9af7">#</tspan><tspan x="31.8" y="510.9" fill="#bb9af7">#</tspan><tspan x="39.6" y="510.9" fill="#bb9af7">#</tspan><tspan x="47.4" y="510.9" fill="#bb9af7">#</tspan><tspan x="55.2" y="510.9" fill="#bb9af7">#</tspan><tspan x="63.0" y="510.9" fill="#bb9af7">#</tspan><tspan x="70.8" y="510.9" fill="#bb9af7">#</tspan><tspan x="78.6" y="510.9" fill="#bb9af7">#</tspan><tspan x="86.4" y="510.9" fill="#bb9af7">#</tspan><tspan x="94.2" y="510.9" fill="#bb9af7">#</tspan><tspan x="102.0" y="510.9" fill="#bb9af7">#</tspan><tspan x="109.8" y="510.9" fill="#bb9af7">#</tspan><tspan x="125.4" y="510.9" fill="#565f89">#</tspan><tspan x="133.2" y="510.9" fill="#7aa2f7">#</tspan><tspan x="141.0" y="510.9" fill="#bb9af7">#</tspan><tspan x="148.8" y="510.9" fill="#bb9af7">#</tspan><tspan x="156.6" y="510.9" fill="#565f89">#</tspan><tspan x="164.4" y="510.9" fill="#565f89">#</tspan><tspan x="172.2" y="510.9" fill="#3b4261">#</tspan><tspan x="180.0" y="510.9" fill="#3b4261">#</tspan><tspan x="242.4" y="510.9" fill="#3b4261">#</tspan><tspan x="250.2" y="510.9" fill="#7aa2f7">#</tspan><tspan x="258.0" y="510.9" fill="#bb9af7">#</tspan><tspan x="265.8" y="510.9" fill="#bb9af7">#</tspan><tspan x="273.6" y="510.9" fill="#bb9af7">#</tspan><tspan x="281.4" y="510.9" fill="#bb9af7">#</tspan><tspan x="289.2" y="510.9" fill="#bb9af7">#</tspan><tspan x="297.0" y="510.9" fill="#bb9af7">#</tspan><tspan x="304.8" y="510.9" fill="#bb9af7">#</tspan><tspan x="312.6" y="510.9" fill="#bb9af7">#</tspan><tspan x="320.4" y="510.9" fill="#bb9af7">#</tspan><tspan x="328.2" y="510.9" fill="#bb9af7">#</tspan><tspan x="24.0" y="528.4" fill="#bb9af7">#</tspan><tspan x="31.8" y="528.4" fill="#bb9af7">#</tspan><tspan x="39.6" y="528.4" fill="#bb9af7">#</tspan><tspan x="47.4" y="528.4" fill="#bb9af7">#</tspan><tspan x="55.2" y="528.4" fill="#bb9af7">#</tspan><tspan x="63.0" y="528.4" fill="#bb9af7">#</tspan><tspan x="70.8" y="528.4" fill="#bb9af7">#</tspan><tspan x="78.6" y="528.4" fill="#bb9af7">#</tspan><tspan x="86.4" y="528.4" fill="#bb9af7">#</tspan><tspan x="94.2" y="528.4" fill="#bb9af7">#</tspan><tspan x="102.0" y="528.4" fill="#bb9af7">#</tspan><tspan x="109.8" y="528.4" fill="#bb9af7">#</tspan><tspan x="117.6" y="528.4" fill="#bb9af7">#</tspan><tspan x="133.2" y="528.4" fill="#565f89">#</tspan><tspan x="141.0" y="528.4" fill="#565f89">#</tspan><tspan x="148.8" y="528.4" fill="#565f89">#</tspan><tspan x="156.6" y="528.4" fill="#7aa2f7">#</tspan><tspan x="164.4" y="528.4" fill="#7aa2f7">#</tspan><tspan x="172.2" y="528.4" fill="#565f89">#</tspan><tspan x="180.0" y="528.4" fill="#565f89">#</tspan><tspan x="187.8" y="528.4" fill="#565f89">#</tspan><tspan x="195.6" y="528.4" fill="#3b4261">#</tspan><tspan x="203.4" y="528.4" fill="#3b4261">#</tspan><tspan x="211.2" y="528.4" fill="#3b4261">#</tspan><tspan x="242.4" y="528.4" fill="#bb9af7">#</tspan><tspan x="250.2" y="528.4" fill="#bb9af7">#</tspan><tspan x="258.0" y="528.4" fill="#bb9af7">#</tspan><tspan x="265.8" y="528.4" fill="#bb9af7">#</tspan><tspan x="273.6" y="528.4" fill="#bb9af7">#</tspan><tspan x="281.4" y="528.4" fill="#565f89">#</tspan><tspan x="289.2" y="528.4" fill="#bb9af7">#</tspan><tspan x="297.0" y="528.4" fill="#bb9af7">#</tspan><tspan x="304.8" y="528.4" fill="#bb9af7">#</tspan><tspan x="312.6" y="528.4" fill="#bb9af7">#</tspan><tspan x="320.4" y="528.4" fill="#bb9af7">#</tspan><tspan x="328.2" y="528.4" fill="#bb9af7">#</tspan><tspan x="24.0" y="546.0" fill="#bb9af7">#</tspan><tspan x="31.8" y="546.0" fill="#bb9af7">#</tspan><tspan x="39.6" y="546.0" fill="#bb9af7">#</tspan><tspan x="47.4" y="546.0" fill="#bb9af7">#</tspan><tspan x="55.2" y="546.0" fill="#bb9af7">#</tspan><tspan x="63.0" y="546.0" fill="#bb9af7">#</tspan><tspan x="70.8" y="546.0" fill="#bb9af7">#</tspan><tspan x="78.6" y="546.0" fill="#bb9af7">#</tspan><tspan x="86.4" y="546.0" fill="#bb9af7">#</tspan><tspan x="94.2" y="546.0" fill="#bb9af7">#</tspan><tspan x="102.0" y="546.0" fill="#bb9af7">#</tspan><tspan x="109.8" y="546.0" fill="#bb9af7">#</tspan><tspan x="117.6" y="546.0" fill="#bb9af7">#</tspan><tspan x="125.4" y="546.0" fill="#bb9af7">#</tspan><tspan x="141.0" y="546.0" fill="#3b4261">#</tspan><tspan x="148.8" y="546.0" fill="#3b4261">#</tspan><tspan x="156.6" y="546.0" fill="#565f89">#</tspan><tspan x="164.4" y="546.0" fill="#565f89">#</tspan><tspan x="172.2" y="546.0" fill="#565f89">#</tspan><tspan x="180.0" y="546.0" fill="#565f89">#</tspan><tspan x="187.8" y="546.0" fill="#565f89">#</tspan><tspan x="195.6" y="546.0" fill="#565f89">#</tspan><tspan x="203.4" y="546.0" fill="#3b4261">#</tspan><tspan x="211.2" y="546.0" fill="#3b4261">#</tspan><tspan x="234.6" y="546.0" fill="#bb9af7">#</tspan><tspan x="242.4" y="546.0" fill="#bb9af7">#</tspan><tspan x="250.2" y="546.0" fill="#bb9af7">#</tspan><tspan x="258.0" y="546.0" fill="#bb9af7">#</tspan><tspan x="265.8" y="546.0" fill="#bb9af7">#</tspan><tspan x="281.4" y="546.0" fill="#bb9af7">#</tspan><tspan x="289.2" y="546.0" fill="#bb9af7">#</tspan><tspan x="297.0" y="546.0" fill="#bb9af7">#</tspan><tspan x="304.8" y="546.0" fill="#bb9af7">#</tspan><tspan x="312.6" y="546.0" fill="#bb9af7">#</tspan><tspan x="320.4" y="546.0" fill="#bb9af7">#</tspan><tspan x="328.2" y="546.0" fill="#bb9af7">#</tspan><tspan x="24.0" y="563.5" fill="#7aa2f7">#</tspan><tspan x="31.8" y="563.5" fill="#bb9af7">#</tspan><tspan x="39.6" y="563.5" fill="#bb9af7">#</tspan><tspan x="47.4" y="563.5" fill="#bb9af7">#</tspan><tspan x="55.2" y="563.5" fill="#bb9af7">#</tspan><tspan x="63.0" y="563.5" fill="#bb9af7">#</tspan><tspan x="70.8" y="563.5" fill="#bb9af7">#</tspan><tspan x="78.6" y="563.5" fill="#bb9af7">#</tspan><tspan x="86.4" y="563.5" fill="#bb9af7">#</tspan><tspan x="94.2" y="563.5" fill="#bb9af7">#</tspan><tspan x="102.0" y="563.5" fill="#bb9af7">#</tspan><tspan x="109.8" y="563.5" fill="#bb9af7">#</tspan><tspan x="117.6" y="563.5" fill="#bb9af7">#</tspan><tspan x="125.4" y="563.5" fill="#bb9af7">#</tspan><tspan x="133.2" y="563.5" fill="#bb9af7">#</tspan><tspan x="141.0" y="563.5" fill="#565f89">#</tspan><tspan x="148.8" y="563.5" fill="#565f89">#</tspan><tspan x="156.6" y="563.5" fill="#3b4261">#</tspan><tspan x="172.2" y="563.5" fill="#3b4261">#</tspan><tspan x="180.0" y="563.5" fill="#3b4261">#</tspan><tspan x="219.0" y="563.5" fill="#7aa2f7">#</tspan><tspan x="226.8" y="563.5" fill="#bb9af7">#</tspan><tspan x="234.6" y="563.5" fill="#bb9af7">#</tspan><tspan x="242.4" y="563.5" fill="#7aa2f7">#</tspan><tspan x="250.2" y="563.5" fill="#bb9af7">#</tspan><tspan x="258.0" y="563.5" fill="#bb9af7">#</tspan><tspan x="265.8" y="563.5" fill="#7aa2f7">#</tspan><tspan x="273.6" y="563.5" fill="#bb9af7">#</tspan><tspan x="281.4" y="563.5" fill="#bb9af7">#</tspan><tspan x="289.2" y="563.5" fill="#bb9af7">#</tspan><tspan x="297.0" y="563.5" fill="#bb9af7">#</tspan><tspan x="304.8" y="563.5" fill="#bb9af7">#</tspan><tspan x="312.6" y="563.5" fill="#bb9af7">#</tspan><tspan x="320.4" y="563.5" fill="#bb9af7">#</tspan><tspan x="328.2" y="563.5" fill="#bb9af7">#</tspan><tspan x="24.0" y="581.1" fill="#bb9af7">#</tspan><tspan x="31.8" y="581.1" fill="#bb9af7">#</tspan><tspan x="39.6" y="581.1" fill="#bb9af7">#</tspan><tspan x="47.4" y="581.1" fill="#bb9af7">#</tspan><tspan x="55.2" y="581.1" fill="#bb9af7">#</tspan><tspan x="63.0" y="581.1" fill="#bb9af7">#</tspan><tspan x="70.8" y="581.1" fill="#bb9af7">#</tspan><tspan x="78.6" y="581.1" fill="#bb9af7">#</tspan><tspan x="86.4" y="581.1" fill="#bb9af7">#</tspan><tspan x="94.2" y="581.1" fill="#bb9af7">#</tspan><tspan x="102.0" y="581.1" fill="#bb9af7">#</tspan><tspan x="109.8" y="581.1" fill="#bb9af7">#</tspan><tspan x="117.6" y="581.1" fill="#bb9af7">#</tspan><tspan x="125.4" y="581.1" fill="#bb9af7">#</tspan><tspan x="133.2" y="581.1" fill="#bb9af7">#</tspan><tspan x="141.0" y="581.1" fill="#bb9af7">#</tspan><tspan x="148.8" y="581.1" fill="#bb9af7">#</tspan><tspan x="156.6" y="581.1" fill="#bb9af7">#</tspan><tspan x="164.4" y="581.1" fill="#bb9af7">#</tspan><tspan x="211.2" y="581.1" fill="#bb9af7">#</tspan><tspan x="219.0" y="581.1" fill="#bb9af7">#</tspan><tspan x="226.8" y="581.1" fill="#bb9af7">#</tspan><tspan x="234.6" y="581.1" fill="#bb9af7">#</tspan><tspan x="242.4" y="581.1" fill="#bb9af7">#</tspan><tspan x="250.2" y="581.1" fill="#bb9af7">#</tspan><tspan x="258.0" y="581.1" fill="#bb9af7">#</tspan><tspan x="265.8" y="581.1" fill="#bb9af7">#</tspan><tspan x="273.6" y="581.1" fill="#bb9af7">#</tspan><tspan x="281.4" y="581.1" fill="#bb9af7">#</tspan><tspan x="289.2" y="581.1" fill="#bb9af7">#</tspan><tspan x="297.0" y="581.1" fill="#bb9af7">#</tspan><tspan x="304.8" y="581.1" fill="#bb9af7">#</tspan><tspan x="312.6" y="581.1" fill="#bb9af7">#</tspan><tspan x="320.4" y="581.1" fill="#bb9af7">#</tspan><tspan x="328.2" y="581.1" fill="#bb9af7">#</tspan><tspan x="24.0" y="598.6" fill="#bb9af7">#</tspan><tspan x="31.8" y="598.6" fill="#bb9af7">#</tspan><tspan x="39.6" y="598.6" fill="#bb9af7">#</tspan><tspan x="47.4" y="598.6" fill="#bb9af7">#</tspan><tspan x="55.2" y="598.6" fill="#bb9af7">#</tspan><tspan x="63.0" y="598.6" fill="#bb9af7">#</tspan><tspan x="70.8" y="598.6" fill="#bb9af7">#</tspan><tspan x="78.6" y="598.6" fill="#bb9af7">#</tspan><tspan x="86.4" y="598.6" fill="#bb9af7">#</tspan><tspan x="94.2" y="598.6" fill="#bb9af7">#</tspan><tspan x="102.0" y="598.6" fill="#bb9af7">#</tspan><tspan x="109.8" y="598.6" fill="#bb9af7">#</tspan><tspan x="117.6" y="598.6" fill="#bb9af7">#</tspan><tspan x="125.4" y="598.6" fill="#bb9af7">#</tspan><tspan x="133.2" y="598.6" fill="#bb9af7">#</tspan><tspan x="141.0" y="598.6" fill="#bb9af7">#</tspan><tspan x="148.8" y="598.6" fill="#bb9af7">#</tspan><tspan x="156.6" y="598.6" fill="#bb9af7">#</tspan><tspan x="164.4" y="598.6" fill="#bb9af7">#</tspan><tspan x="172.2" y="598.6" fill="#bb9af7">#</tspan><tspan x="180.0" y="598.6" fill="#565f89">#</tspan><tspan x="187.8" y="598.6" fill="#565f89">#</tspan><tspan x="195.6" y="598.6" fill="#565f89">#</tspan><tspan x="203.4" y="598.6" fill="#bb9af7">#</tspan><tspan x="211.2" y="598.6" fill="#bb9af7">#</tspan><tspan x="219.0" y="598.6" fill="#bb9af7">#</tspan><tspan x="226.8" y="598.6" fill="#bb9af7">#</tspan><tspan x="234.6" y="598.6" fill="#bb9af7">#</tspan><tspan x="242.4" y="598.6" fill="#bb9af7">#</tspan><tspan x="250.2" y="598.6" fill="#bb9af7">#</tspan><tspan x="258.0" y="598.6" fill="#bb9af7">#</tspan><tspan x="265.8" y="598.6" fill="#bb9af7">#</tspan><tspan x="273.6" y="598.6" fill="#bb9af7">#</tspan><tspan x="281.4" y="598.6" fill="#bb9af7">#</tspan><tspan x="289.2" y="598.6" fill="#bb9af7">#</tspan><tspan x="297.0" y="598.6" fill="#bb9af7">#</tspan><tspan x="304.8" y="598.6" fill="#bb9af7">#</tspan><tspan x="312.6" y="598.6" fill="#bb9af7">#</tspan><tspan x="320.4" y="598.6" fill="#bb9af7">#</tspan><tspan x="328.2" y="598.6" fill="#bb9af7">#</tspan></text>
<g font-family="Consolas, Menlo, Monaco, monospace" font-size="13px"><text x="376.0" y="47" fill="#bb9af7" font-weight="bold" font-size="15px">abduhoo</text><text x="444.0" y="47" fill="#c0caf5" font-size="15px">@ist</text><text x="376.0" y="71.7" fill="#414868">----------------------------------------------------</text><text x="376.0" y="96.4" fill="#7aa2f7" font-weight="bold">Institution</text><text x="521.0" y="96.4" fill="#c0caf5">Institute of Space Technology</text><text x="376.0" y="121.10000000000001" fill="#7aa2f7" font-weight="bold">Program</text><text x="521.0" y="121.10000000000001" fill="#c0caf5">BS Computer Science</text><text x="376.0" y="145.8" fill="#7aa2f7" font-weight="bold">Session</text><text x="521.0" y="145.8" fill="#c0caf5">2024 - 2028</text><text x="376.0" y="170.5" fill="#7aa2f7" font-weight="bold">Focus</text><text x="521.0" y="170.5" fill="#c0caf5">OOP (C++), Digital Logic, DB</text><text x="376.0" y="195.2" fill="#7aa2f7" font-weight="bold">Languages</text><text x="521.0" y="195.2" fill="#c0caf5">C++, GDScript, Kotlin, PHP, JS</text><text x="376.0" y="219.89999999999998" fill="#7aa2f7" font-weight="bold">Interests</text><text x="521.0" y="219.89999999999998" fill="#c0caf5">Game Dev, GUI Apps, Android Dev</text><text x="376.0" y="244.59999999999997" fill="#7aa2f7" font-weight="bold">Editor</text><text x="521.0" y="244.59999999999997" fill="#c0caf5">your editor here</text><text x="376.0" y="269.29999999999995" fill="#7aa2f7" font-weight="bold">OS</text><text x="521.0" y="269.29999999999995" fill="#c0caf5">your OS here</text></g>
<rect x="376.0" y="297.99999999999994" width="15" height="15" fill="#f7768e" rx="3"/><rect x="395.0" y="297.99999999999994" width="15" height="15" fill="#e0af68" rx="3"/><rect x="414.0" y="297.99999999999994" width="15" height="15" fill="#9ece6a" rx="3"/><rect x="433.0" y="297.99999999999994" width="15" height="15" fill="#7dcfff" rx="3"/><rect x="452.0" y="297.99999999999994" width="15" height="15" fill="#bb9af7" rx="3"/><rect x="471.0" y="297.99999999999994" width="15" height="15" fill="#c0caf5" rx="3"/><rect x="490.0" y="297.99999999999994" width="15" height="15" fill="#414868" rx="3"/><rect x="509.0" y="297.99999999999994" width="15" height="15" fill="#ffffff" rx="3"/>
</svg>